<mxfile host="app.diagrams.net" agent="Mozilla/5.0 (Windows NT 10.0; Win64; x64) AppleWebKit/537.36 (KHTML, like Gecko) Chrome/131.0.0.0 Safari/537.36" version="25.0.3">
  <diagram name="PÃ¡gina-1" id="xBQ2DdorDVQ95Xo8NUVc">
    <mxGraphModel dx="1035" dy="511" grid="1" gridSize="10" guides="1" tooltips="1" connect="1" arrows="1" fold="1" page="1" pageScale="1" pageWidth="827" pageHeight="1169" math="0" shadow="0">
      <root>
        <mxCell id="0" />
        <mxCell id="1" parent="0" />
        <mxCell id="VHSoTAZhlR1LFTq1NQqT-1" value="Aphrodite.Domain.Core" style="rounded=1;whiteSpace=wrap;html=1;glass=1;" vertex="1" parent="1">
          <mxGeometry x="120" y="40" width="200" height="60" as="geometry" />
        </mxCell>
        <mxCell id="VHSoTAZhlR1LFTq1NQqT-3" value="Aphrodite.Domain.PaymentContext" style="rounded=1;whiteSpace=wrap;html=1;glass=1;" vertex="1" parent="1">
          <mxGeometry x="120" y="120" width="200" height="60" as="geometry" />
        </mxCell>
        <mxCell id="VHSoTAZhlR1LFTq1NQqT-4" value="Aphrodite.Domain.Shared" style="rounded=1;whiteSpace=wrap;html=1;glass=1;" vertex="1" parent="1">
          <mxGeometry x="120" y="200" width="200" height="60" as="geometry" />
        </mxCell>
        <mxCell id="VHSoTAZhlR1LFTq1NQqT-5" value="Aphrodite.Infra" style="rounded=1;whiteSpace=wrap;html=1;glass=1;" vertex="1" parent="1">
          <mxGeometry x="360" y="120" width="200" height="60" as="geometry" />
        </mxCell>
        <mxCell id="VHSoTAZhlR1LFTq1NQqT-6" value="Aphrodite.Tests" style="rounded=1;whiteSpace=wrap;html=1;glass=1;" vertex="1" parent="1">
          <mxGeometry x="360" y="200" width="200" height="60" as="geometry" />
        </mxCell>
        <mxCell id="VHSoTAZhlR1LFTq1NQqT-7" value="Aphrodite.Api" style="rounded=1;whiteSpace=wrap;html=1;glass=1;" vertex="1" parent="1">
          <mxGeometry x="360" y="40" width="200" height="60" as="geometry" />
        </mxCell>
      </root>
    </mxGraphModel>
  </diagram>
</mxfile>
